# xmcd CD database file
#
# Track frame offsets:
#	150
#	29035
#	49899
#	82479
#	96046
#	135357
#	161706
#	190050
#	200742
#	232511
#
# Disc length: 3525 seconds
#
# Revision: 0
# Processed by: cddbd v1.5.2PL0 Copyright (c) Steve Scherf et al.
# Submitted via: CDex 1.51
#
DISCID=850dc30a
DTITLE=Gilad Hekselman - Splitlife
DYEAR=2006
DGENRE=Jazz
TTITLE0=Purim
TTITLE1=Hello Who Is It?
TTITLE2=My Ideal
TTITLE3=I Fall In Love Too Easily
TTITLE4=Suite For Sweets
TTITLE5=When Will The Blues Leave
TTITLE6=The Summer Of Laughs And Tears
TTITLE7=Breathless
TTITLE8=I Should Care
TTITLE9=My Second Childhood
EXTD=YEAR: 2006
EXTT0=
EXTT1=
EXTT2=
EXTT3=
EXTT4=
EXTT5=
EXTT6=
EXTT7=
EXTT8=
EXTT9=
PLAYORDER=
